<?xml version="1.0" encoding="UTF-8"?>
<svg id="Layer_2" data-name="Layer 2" xmlns="http://www.w3.org/2000/svg" viewBox="0 0 1687.04 286.5">
  <defs>
    <style>
      .cls-1, .cls-2 {
        fill: #fff;
      }

      .cls-2 {
        font-family: KohinoorDevanagari-Bold, 'Kohinoor Devanagari';
        font-size: 42.62px;
        font-weight: 700;
        letter-spacing: .13em;
      }
    </style>
  </defs>
  <g id="Layer_1-2" data-name="Layer 1">
    <g>
      <text class="cls-2" transform="translate(96.73 265.19)"><tspan x="0" y="0">WORLD CLASS WEB DESIGN IN GUERNSEY AND JERSEY</tspan></text>
      <path class="cls-1" d="m44.17,30.04L23.03.47c-.18-.28-.49-.47-.85-.47h0s-.08,0-.11,0c-.01,0-.03,0-.04,0-.02,0-.05,0-.07.01-.02,0-.03,0-.05.01-.02,0-.03.01-.05.02-.02,0-.04.01-.06.02-.01,0-.02.01-.03.02-.16.07-.3.18-.41.33L.19,30.04c-.17.24-.23.54-.16.83.07.29.27.53.53.65.03.01,2.64,1.3,5.21,4.06,3.18,3.41,4.89,7.47,5.11,12.06h-2.93c-.55,0-1,.45-1,1v4.64c0,.55.45,1,1,1h28.45c.55,0,1-.45,1-1v-4.64c0-.55-.45-1-1-1h-2.93c.22-4.6,1.93-8.65,5.11-12.06,2.57-2.76,5.18-4.04,5.21-4.06.27-.13.46-.37.54-.65.07-.29.02-.59-.16-.83Zm-25.43.58c0-1.82,1.55-3.29,3.44-3.29.93,0,1.8.35,2.45.98.64.62,1,1.44,1,2.32,0,1.81-1.55,3.29-3.44,3.29v1s0-1,0-1c-1.9,0-3.44-1.48-3.44-3.29Zm16.67,21.66H8.95v-2.63h26.45v2.63Zm1.77-18.13c-2.48,2.65-5.42,7.1-5.7,13.49H12.89c-.28-6.39-3.22-10.84-5.7-13.49-1.82-1.94-3.63-3.19-4.72-3.86L21.18,4.12v21.29c-2.53.46-4.45,2.62-4.45,5.2,0,2.92,2.44,5.29,5.45,5.3h0c3,0,5.45-2.38,5.45-5.3,0-1.42-.57-2.76-1.61-3.76-.79-.76-1.77-1.26-2.84-1.45V4.13s18.71,26.16,18.71,26.16c-1.09.67-2.9,1.92-4.72,3.86Z"/>
      <g>
        <path class="cls-1" d="m37.63,250.32c0,4.3-1.55,8-4.64,11.09s-6.79,4.64-11.09,4.64c-2.15,0-4.17-.4-6.05-1.21-1.88-.81-3.53-1.92-4.94-3.33s-2.52-3.09-3.33-5.04c-.81-1.95-1.21-4-1.21-6.15V86.67c0-4.3,1.51-7.96,4.54-10.99s6.68-4.54,10.99-4.54c2.15,0,4.2.4,6.15,1.21,1.95.81,3.63,1.92,5.04,3.33s2.52,3.06,3.33,4.94c.81,1.88,1.21,3.9,1.21,6.05v163.64Z"/>
        <path class="cls-1" d="m138.63,163.78c-2.42,4.77-5.71,8.74-9.88,11.89-4.17,3.16-8.97,5.54-14.41,7.16-5.44,1.61-11.26,2.42-17.44,2.42-4.44,0-9.34-.74-14.72-2.22-5.38-1.48-10.42-3.56-15.12-6.25-4.71-2.69-8.64-5.85-11.79-9.48-3.16-3.63-4.74-7.66-4.74-12.1,0-5.37,1.38-9.37,4.13-11.99,2.75-2.62,6.48-3.93,11.19-3.93,2.96,0,5.78.91,8.47,2.72,2.69,1.81,5.27,3.8,7.76,5.95,2.49,2.15,5.04,4.13,7.66,5.95,2.62,1.81,5.47,2.72,8.57,2.72,2.69,0,5.31-.57,7.86-1.71,2.55-1.14,3.83-3.06,3.83-5.75s-1.31-4.6-3.93-6.15c-2.62-1.54-5.88-2.92-9.78-4.13-3.9-1.21-8.16-2.49-12.8-3.83-4.64-1.34-8.9-3.26-12.8-5.75-3.9-2.49-7.16-5.68-9.78-9.58-2.62-3.9-3.93-9-3.93-15.32,0-4.97.74-9.54,2.22-13.71,1.48-4.16,3.8-7.79,6.96-10.89,3.16-3.09,7.09-5.51,11.79-7.26,4.7-1.75,10.28-2.62,16.73-2.62,5.91,0,11.32.57,16.23,1.71,4.9,1.14,9.1,2.69,12.6,4.64,3.49,1.95,6.21,4.27,8.16,6.96,1.95,2.69,2.92,5.64,2.92,8.87,0,3.63-1.31,6.79-3.93,9.47-2.62,2.69-5.81,4.03-9.58,4.03-3.22,0-5.95-.5-8.16-1.51s-4.27-2.08-6.15-3.23c-1.88-1.14-3.73-2.22-5.54-3.22-1.81-1.01-4-1.51-6.55-1.51-1.48,0-2.72.4-3.73,1.21s-1.51,1.95-1.51,3.43c0,3.09,1.31,5.41,3.93,6.96,2.62,1.55,5.88,2.89,9.78,4.03,3.9,1.14,8.13,2.35,12.7,3.63,4.57,1.28,8.8,3.12,12.7,5.54,3.9,2.42,7.16,5.68,9.78,9.78,2.62,4.1,3.93,9.51,3.93,16.23s-1.21,12.06-3.63,16.83Z"/>
        <path class="cls-1" d="m188.02,168.32c0,4.3-1.55,8-4.64,11.09s-6.79,4.64-11.09,4.64c-2.15,0-4.17-.4-6.05-1.21-1.88-.81-3.53-1.92-4.94-3.33-1.41-1.41-2.52-3.09-3.33-5.04-.81-1.95-1.21-4-1.21-6.15V48.37c0-4.3,1.51-7.96,4.54-10.99s6.68-4.54,10.99-4.54c2.15,0,4.2.4,6.15,1.21,1.95.81,3.63,1.92,5.04,3.33s2.52,3.06,3.33,4.94c.81,1.88,1.21,3.9,1.21,6.05v119.95Z"/>
        <path class="cls-1" d="m315.62,168.32c0,4.3-1.51,8-4.54,11.09-3.02,3.09-6.69,4.64-10.99,4.64-3.63,0-6.85-1.21-9.68-3.63s-4.57-5.04-5.24-7.86c-.4.27-1.35,1.01-2.82,2.22-1.48,1.21-3.53,2.52-6.15,3.93-2.62,1.41-5.82,2.66-9.58,3.73-3.76,1.08-8.13,1.61-13.1,1.61-6.32,0-12.6-1.41-18.85-4.23s-11.83-6.75-16.73-11.79c-4.91-5.04-8.9-10.99-11.99-17.84-3.09-6.85-4.64-14.38-4.64-22.58s1.54-15.75,4.64-22.68c3.09-6.92,7.09-12.87,11.99-17.84,4.9-4.97,10.48-8.87,16.73-11.69s12.53-4.23,18.85-4.23c4.97,0,9.34.54,13.1,1.61,3.76,1.08,6.96,2.32,9.58,3.73,2.62,1.41,4.67,2.72,6.15,3.93,1.48,1.21,2.42,1.95,2.82,2.22.67-2.82,2.42-5.44,5.24-7.86,2.82-2.42,6.05-3.63,9.68-3.63,4.3,0,7.96,1.51,10.99,4.54,3.02,3.02,4.54,6.69,4.54,10.99v81.64Zm-67.23-64.71c-3.16,1.34-5.92,3.19-8.27,5.54-2.35,2.35-4.2,5.11-5.54,8.27-1.35,3.16-2.02,6.55-2.02,10.18s.67,7.02,2.02,10.18c1.34,3.16,3.19,5.92,5.54,8.27,2.35,2.35,5.11,4.2,8.27,5.54,3.16,1.34,6.55,2.02,10.18,2.02s6.99-.67,10.08-2.02c3.09-1.34,5.81-3.19,8.17-5.54,2.35-2.35,4.2-5.11,5.54-8.27,1.34-3.16,2.02-6.55,2.02-10.18s-.67-7.02-2.02-10.18c-1.35-3.16-3.19-5.91-5.54-8.27-2.35-2.35-5.07-4.2-8.17-5.54-3.09-1.34-6.45-2.02-10.08-2.02s-7.02.67-10.18,2.02Z"/>
        <path class="cls-1" d="m398.88,73.77c5.91,2.55,11.05,6.02,15.42,10.38,4.37,4.37,7.83,9.51,10.38,15.42,2.55,5.92,3.83,12.23,3.83,18.95v49.79c0,2.15-.4,4.2-1.21,6.15-.81,1.95-1.92,3.63-3.33,5.04s-3.06,2.52-4.94,3.33c-1.88.81-3.9,1.21-6.05,1.21-4.3,0-8-1.54-11.09-4.64-3.09-3.09-4.64-6.79-4.64-11.09v-51.41c0-4.57-1.75-8.33-5.24-11.29-3.5-2.96-7.53-4.44-12.09-4.44s-8.77,1.48-12.2,4.44c-3.43,2.96-5.14,6.72-5.14,11.29v51.41c0,4.3-1.55,8-4.64,11.09s-6.79,4.64-11.09,4.64-7.96-1.54-10.99-4.64c-3.02-3.09-4.54-6.79-4.54-11.09v-49.79c0-6.72,1.28-13.03,3.83-18.95,2.55-5.91,6.01-11.05,10.38-15.42,4.37-4.37,9.51-7.83,15.42-10.38,5.91-2.55,12.23-3.83,18.95-3.83s13.03,1.28,18.95,3.83Z"/>
        <path class="cls-1" d="m521.45,174.77c-1.48,1.21-3.53,2.52-6.15,3.93-2.62,1.41-5.82,2.66-9.58,3.73-3.76,1.08-8.13,1.61-13.1,1.61-6.32,0-12.6-1.41-18.85-4.23s-11.83-6.75-16.73-11.79c-4.91-5.04-8.9-10.99-11.99-17.84-3.09-6.85-4.64-14.38-4.64-22.58s1.54-15.75,4.64-22.68c3.09-6.92,7.09-12.87,11.99-17.84,4.9-4.97,10.48-8.87,16.73-11.69s12.53-4.23,18.85-4.23c4.84,0,8.97.54,12.4,1.61,3.43,1.08,6.32,2.25,8.67,3.53,2.35,1.28,4.2,2.45,5.54,3.53,1.34,1.08,2.35,1.61,3.02,1.61.81,0,1.21-1.41,1.21-4.23v-28.83c0-2.15.4-4.16,1.21-6.05.81-1.88,1.92-3.53,3.33-4.94s3.09-2.52,5.04-3.33c1.95-.81,4-1.21,6.15-1.21,4.3,0,7.96,1.51,10.99,4.54,3.02,3.02,4.54,6.69,4.54,10.99v119.95c0,4.3-1.51,8-4.54,11.09-3.02,3.09-6.69,4.64-10.99,4.64-3.63,0-6.85-1.21-9.68-3.63s-4.57-5.04-5.24-7.86c-.4.27-1.35,1.01-2.82,2.22Zm-33.97-71.16c-3.16,1.34-5.92,3.19-8.27,5.54-2.35,2.35-4.2,5.11-5.54,8.27-1.35,3.16-2.02,6.55-2.02,10.18s.67,7.02,2.02,10.18c1.34,3.16,3.19,5.92,5.54,8.27,2.35,2.35,5.11,4.2,8.27,5.54,3.16,1.34,6.55,2.02,10.18,2.02s6.99-.67,10.08-2.02c3.09-1.34,5.81-3.19,8.17-5.54,2.35-2.35,4.2-5.11,5.54-8.27,1.34-3.16,2.02-6.55,2.02-10.18s-.67-7.02-2.02-10.18c-1.35-3.16-3.19-5.91-5.54-8.27-2.35-2.35-5.07-4.2-8.17-5.54-3.09-1.34-6.45-2.02-10.08-2.02s-7.02.67-10.18,2.02Z"/>
        <path class="cls-1" d="m704.89,73.47c2.82,1.55,4.77,4,5.85,7.36l17.34,50.6,15.93-50c1.07-3.23,2.99-5.75,5.75-7.56,2.75-1.81,5.75-2.72,8.97-2.72,2.82,0,5.21.54,7.16,1.61,1.95,1.08,3.53,2.39,4.74,3.93,1.21,1.55,2.12,3.23,2.72,5.04.61,1.81.91,3.53.91,5.14s-.34,3.43-1.01,5.44l-30.24,81.85c-1.08,3.09-2.79,5.51-5.14,7.26-2.35,1.75-5.21,2.62-8.57,2.62-7.12,0-12.03-3.23-14.72-9.68l-19.15-47.17-18.34,47.17c-2.55,6.45-7.73,9.68-15.52,9.68-3.23,0-5.98-.87-8.27-2.62-2.29-1.75-3.97-4.16-5.04-7.26l-30.24-81.85c-.67-2.02-1.01-3.83-1.01-5.44s.3-3.33.91-5.14c.6-1.81,1.51-3.49,2.72-5.04,1.21-1.54,2.79-2.85,4.74-3.93,1.95-1.07,4.33-1.61,7.16-1.61,3.23,0,6.21.91,8.97,2.72,2.75,1.81,4.67,4.33,5.75,7.56l15.93,50.2,17.54-50.8c1.07-3.23,2.92-5.64,5.54-7.26,2.62-1.61,5.68-2.42,9.17-2.42s6.65.77,9.47,2.32Z"/>
        <path class="cls-1" d="m818.79,148.56c0,.81.54,1.58,1.61,2.32,1.07.74,2.42,1.41,4.03,2.02,1.61.61,3.36,1.11,5.24,1.51,1.88.4,3.56.6,5.04.6,4.3,0,7.66-.57,10.08-1.71,2.42-1.14,4.47-2.38,6.15-3.73,1.68-1.34,3.29-2.59,4.84-3.73,1.54-1.14,3.66-1.71,6.35-1.71,2.02,0,4,.47,5.95,1.41,1.95.94,3.66,2.15,5.14,3.63,1.48,1.48,2.65,3.19,3.53,5.14.87,1.95,1.31,4,1.31,6.15,0,3.9-1.55,7.39-4.64,10.48-4.3,4.03-9.81,7.43-16.53,10.18-6.72,2.76-14.11,4.13-22.17,4.13s-15.39-1.41-22.38-4.23c-6.99-2.82-13.1-6.79-18.34-11.89-5.24-5.11-9.37-11.19-12.4-18.24-3.02-7.06-4.54-14.82-4.54-23.28s1.51-16.23,4.54-23.28c3.02-7.06,7.16-13.14,12.4-18.24,5.24-5.11,11.36-9.07,18.34-11.89,6.99-2.82,14.45-4.23,22.38-4.23,6.05,0,11.99.94,17.84,2.82,5.85,1.88,11.02,4.57,15.52,8.06,4.5,3.5,8.13,7.66,10.89,12.5,2.75,4.84,4.13,10.28,4.13,16.33,0,3.36-.71,6.28-2.12,8.77-1.41,2.49-3.66,4.33-6.75,5.54l-52.62,21.97c-1.88.81-2.82,1.68-2.82,2.62Zm-8.97-26.11c.47.34,1.04.5,1.71.5.54,0,1.21-.13,2.02-.4l32.66-13.71c1.88-.81,2.82-1.75,2.82-2.82,0-1.48-1.41-2.82-4.23-4.03-2.82-1.21-6.18-1.81-10.08-1.81s-7.19.71-10.28,2.12c-3.09,1.41-5.78,3.12-8.06,5.14-2.29,2.02-4.07,4.23-5.34,6.65-1.28,2.42-1.92,4.64-1.92,6.65,0,.81.23,1.38.71,1.71Z"/>
        <path class="cls-1" d="m945.39,182.43c-3.76-1.07-6.95-2.32-9.58-3.73s-4.67-2.72-6.15-3.93c-1.48-1.21-2.42-1.95-2.82-2.22-.67,2.82-2.39,5.44-5.14,7.86-2.76,2.42-6.02,3.63-9.78,3.63-2.15,0-4.17-.4-6.05-1.21-1.88-.81-3.53-1.92-4.94-3.33-1.41-1.41-2.52-3.09-3.33-5.04-.81-1.95-1.21-4-1.21-6.15V48.37c0-4.3,1.51-7.96,4.54-10.99s6.68-4.54,10.99-4.54c2.15,0,4.2.4,6.15,1.21,1.95.81,3.63,1.92,5.04,3.33s2.52,3.06,3.33,4.94c.81,1.88,1.21,3.9,1.21,6.05v28.83c0,2.82.4,4.23,1.21,4.23.67,0,1.68-.54,3.02-1.61,1.34-1.07,3.19-2.25,5.54-3.53,2.35-1.28,5.27-2.45,8.77-3.53,3.49-1.07,7.66-1.61,12.5-1.61,6.32,0,12.56,1.41,18.75,4.23,6.18,2.82,11.76,6.72,16.73,11.69,4.97,4.97,8.97,10.92,11.99,17.84,3.02,6.92,4.54,14.48,4.54,22.68s-1.51,15.72-4.54,22.58c-3.02,6.85-7.02,12.8-11.99,17.84-4.97,5.04-10.55,8.97-16.73,11.79-6.18,2.82-12.43,4.23-18.75,4.23-5.11,0-9.54-.54-13.31-1.61Zm32.05-65.01c-1.34-3.16-3.19-5.91-5.54-8.27-2.35-2.35-5.07-4.2-8.16-5.54-3.09-1.34-6.45-2.02-10.08-2.02s-7.02.67-10.18,2.02c-3.16,1.34-5.92,3.19-8.26,5.54-2.35,2.35-4.2,5.11-5.54,8.27-1.34,3.16-2.02,6.55-2.02,10.18s.67,7.02,2.02,10.18c1.34,3.16,3.19,5.92,5.54,8.27,2.35,2.35,5.11,4.2,8.26,5.54,3.16,1.34,6.55,2.02,10.18,2.02s6.99-.67,10.08-2.02c3.09-1.34,5.81-3.19,8.16-5.54s4.2-5.11,5.54-8.27c1.34-3.16,2.02-6.55,2.02-10.18s-.67-7.02-2.02-10.18Z"/>
        <path class="cls-1" d="m1150.21,174.77c-1.48,1.21-3.53,2.52-6.15,3.93-2.62,1.41-5.82,2.66-9.58,3.73-3.76,1.08-8.13,1.61-13.1,1.61-6.32,0-12.6-1.41-18.85-4.23s-11.83-6.75-16.73-11.79c-4.91-5.04-8.9-10.99-11.99-17.84-3.09-6.85-4.64-14.38-4.64-22.58s1.54-15.75,4.64-22.68c3.09-6.92,7.09-12.87,11.99-17.84,4.9-4.97,10.48-8.87,16.73-11.69s12.53-4.23,18.85-4.23c4.84,0,8.97.54,12.4,1.61,3.43,1.08,6.32,2.25,8.67,3.53,2.35,1.28,4.2,2.45,5.54,3.53,1.34,1.08,2.35,1.61,3.02,1.61.81,0,1.21-1.41,1.21-4.23v-28.83c0-2.15.4-4.16,1.21-6.05.81-1.88,1.92-3.53,3.33-4.94s3.09-2.52,5.04-3.33c1.95-.81,4-1.21,6.15-1.21,4.3,0,7.96,1.51,10.99,4.54,3.02,3.02,4.54,6.69,4.54,10.99v119.95c0,4.3-1.51,8-4.54,11.09-3.02,3.09-6.69,4.64-10.99,4.64-3.63,0-6.85-1.21-9.68-3.63s-4.57-5.04-5.24-7.86c-.4.27-1.35,1.01-2.82,2.22Zm-33.97-71.16c-3.16,1.34-5.92,3.19-8.27,5.54-2.35,2.35-4.2,5.11-5.54,8.27-1.35,3.16-2.02,6.55-2.02,10.18s.67,7.02,2.02,10.18c1.34,3.16,3.19,5.92,5.54,8.27,2.35,2.35,5.11,4.2,8.27,5.54,3.16,1.34,6.55,2.02,10.18,2.02s6.99-.67,10.08-2.02c3.09-1.34,5.81-3.19,8.17-5.54,2.35-2.35,4.2-5.11,5.54-8.27,1.34-3.16,2.02-6.55,2.02-10.18s-.67-7.02-2.02-10.18c-1.35-3.16-3.19-5.91-5.54-8.27-2.35-2.35-5.07-4.2-8.17-5.54-3.09-1.34-6.45-2.02-10.08-2.02s-7.02.67-10.18,2.02Z"/>
        <path class="cls-1" d="m1238.51,148.56c0,.81.54,1.58,1.61,2.32,1.07.74,2.42,1.41,4.03,2.02,1.61.61,3.36,1.11,5.24,1.51,1.88.4,3.56.6,5.04.6,4.3,0,7.66-.57,10.08-1.71,2.42-1.14,4.47-2.38,6.15-3.73,1.68-1.34,3.29-2.59,4.84-3.73,1.54-1.14,3.66-1.71,6.35-1.71,2.02,0,4,.47,5.95,1.41,1.95.94,3.66,2.15,5.14,3.63,1.48,1.48,2.65,3.19,3.53,5.14.87,1.95,1.31,4,1.31,6.15,0,3.9-1.55,7.39-4.64,10.48-4.3,4.03-9.81,7.43-16.53,10.18-6.72,2.76-14.11,4.13-22.17,4.13s-15.39-1.41-22.38-4.23c-6.99-2.82-13.1-6.79-18.34-11.89-5.24-5.11-9.37-11.19-12.4-18.24-3.02-7.06-4.54-14.82-4.54-23.28s1.51-16.23,4.54-23.28c3.02-7.06,7.16-13.14,12.4-18.24,5.24-5.11,11.36-9.07,18.34-11.89,6.99-2.82,14.45-4.23,22.38-4.23,6.05,0,11.99.94,17.84,2.82,5.85,1.88,11.02,4.57,15.52,8.06,4.5,3.5,8.13,7.66,10.89,12.5,2.75,4.84,4.13,10.28,4.13,16.33,0,3.36-.71,6.28-2.12,8.77-1.41,2.49-3.66,4.33-6.75,5.54l-52.62,21.97c-1.88.81-2.82,1.68-2.82,2.62Zm-8.97-26.11c.47.34,1.04.5,1.71.5.54,0,1.21-.13,2.02-.4l32.66-13.71c1.88-.81,2.82-1.75,2.82-2.82,0-1.48-1.41-2.82-4.23-4.03-2.82-1.21-6.18-1.81-10.08-1.81s-7.19.71-10.28,2.12c-3.09,1.41-5.78,3.12-8.06,5.14-2.29,2.02-4.07,4.23-5.34,6.65-1.28,2.42-1.92,4.64-1.92,6.65,0,.81.23,1.38.71,1.71Z"/>
        <path class="cls-1" d="m1399.98,163.78c-2.42,4.77-5.71,8.74-9.88,11.89-4.17,3.16-8.97,5.54-14.41,7.16-5.44,1.61-11.26,2.42-17.44,2.42-4.44,0-9.34-.74-14.72-2.22-5.38-1.48-10.42-3.56-15.12-6.25-4.71-2.69-8.64-5.85-11.79-9.48-3.16-3.63-4.74-7.66-4.74-12.1,0-5.37,1.38-9.37,4.13-11.99,2.75-2.62,6.48-3.93,11.19-3.93,2.96,0,5.78.91,8.47,2.72,2.69,1.81,5.27,3.8,7.76,5.95,2.49,2.15,5.04,4.13,7.66,5.95,2.62,1.81,5.47,2.72,8.57,2.72,2.69,0,5.31-.57,7.86-1.71,2.55-1.14,3.83-3.06,3.83-5.75s-1.31-4.6-3.93-6.15c-2.62-1.54-5.88-2.92-9.78-4.13-3.9-1.21-8.16-2.49-12.8-3.83-4.64-1.34-8.9-3.26-12.8-5.75-3.9-2.49-7.16-5.68-9.78-9.58-2.62-3.9-3.93-9-3.93-15.32,0-4.97.74-9.54,2.22-13.71,1.48-4.16,3.8-7.79,6.96-10.89,3.16-3.09,7.09-5.51,11.79-7.26,4.7-1.75,10.28-2.62,16.73-2.62,5.91,0,11.32.57,16.23,1.71,4.9,1.14,9.1,2.69,12.6,4.64,3.49,1.95,6.21,4.27,8.16,6.96,1.95,2.69,2.92,5.64,2.92,8.87,0,3.63-1.31,6.79-3.93,9.47-2.62,2.69-5.81,4.03-9.58,4.03-3.22,0-5.95-.5-8.16-1.51s-4.27-2.08-6.15-3.23c-1.88-1.14-3.73-2.22-5.54-3.22-1.81-1.01-4-1.51-6.55-1.51-1.48,0-2.72.4-3.73,1.21s-1.51,1.95-1.51,3.43c0,3.09,1.31,5.41,3.93,6.96,2.62,1.55,5.88,2.89,9.78,4.03,3.9,1.14,8.13,2.35,12.7,3.63,4.57,1.28,8.8,3.12,12.7,5.54,3.9,2.42,7.16,5.68,9.78,9.78,2.62,4.1,3.93,9.51,3.93,16.23s-1.21,12.06-3.63,16.83Z"/>
        <path class="cls-1" d="m1420.34,36.48c3.22-3.23,7.19-4.84,11.89-4.84s8.7,1.61,12,4.84c3.29,3.23,4.94,7.19,4.94,11.89s-1.65,8.7-4.94,12c-3.29,3.29-7.29,4.94-12,4.94s-8.67-1.64-11.89-4.94c-3.23-3.29-4.84-7.29-4.84-12s1.61-8.67,4.84-11.89Zm27.62,131.84c0,4.3-1.55,8-4.64,11.09s-6.79,4.64-11.09,4.64c-2.15,0-4.17-.4-6.05-1.21-1.88-.81-3.53-1.92-4.94-3.33s-2.52-3.09-3.33-5.04c-.81-1.95-1.21-4-1.21-6.15v-81.64c0-4.3,1.51-7.96,4.54-10.99s6.68-4.54,10.99-4.54c2.15,0,4.2.4,6.15,1.21,1.95.81,3.63,1.92,5.04,3.33s2.52,3.06,3.33,4.94c.81,1.88,1.21,3.9,1.21,6.05v81.64Z"/>
        <path class="cls-1" d="m1568.81,202.59c-3.56,6.58-8.2,12.2-13.91,16.83-5.71,4.64-12.17,8.16-19.35,10.58-7.19,2.42-14.48,3.63-21.87,3.63-4.71,0-9.78-.64-15.22-1.92-5.44-1.28-10.48-3.12-15.12-5.54s-8.54-5.34-11.69-8.77c-3.16-3.43-4.74-7.36-4.74-11.79,0-2.15.43-4.2,1.31-6.15.87-1.95,2.05-3.63,3.53-5.04,1.48-1.41,3.19-2.52,5.14-3.33,1.95-.81,4-1.21,6.15-1.21,2.55,0,4.97.71,7.26,2.12,2.28,1.41,4.7,2.96,7.26,4.64,2.55,1.68,5.34,3.23,8.37,4.64s6.55,2.12,10.58,2.12c2.69,0,5.58-.5,8.67-1.51,3.09-1.01,5.95-2.49,8.57-4.43,2.62-1.95,4.8-4.37,6.55-7.26,1.75-2.89,2.62-6.21,2.62-9.98v-2.22c0-2.82-.4-4.23-1.21-4.23-.67,0-1.68.54-3.02,1.61-1.34,1.08-3.19,2.25-5.54,3.53-2.35,1.28-5.24,2.45-8.67,3.53-3.43,1.08-7.56,1.61-12.4,1.61-6.32,0-12.6-1.41-18.85-4.23s-11.83-6.75-16.73-11.79c-4.91-5.04-8.9-10.99-11.99-17.84-3.09-6.85-4.64-14.38-4.64-22.58s1.54-15.75,4.64-22.68c3.09-6.92,7.09-12.87,11.99-17.84,4.9-4.97,10.48-8.87,16.73-11.69s12.53-4.23,18.85-4.23c4.97,0,9.34.54,13.1,1.61,3.76,1.08,6.96,2.32,9.58,3.73,2.62,1.41,4.67,2.72,6.15,3.93,1.48,1.21,2.42,1.95,2.82,2.22.67-2.82,2.42-5.44,5.24-7.86,2.82-2.42,6.05-3.63,9.68-3.63,4.3,0,7.96,1.51,10.99,4.54,3.02,3.02,4.54,6.69,4.54,10.99v93.54c0,8.33-1.78,15.79-5.34,22.38Zm-75.7-64.81c1.34,3.16,3.19,5.92,5.54,8.27,2.35,2.35,5.11,4.2,8.27,5.54,3.16,1.34,6.55,2.02,10.18,2.02s6.99-.67,10.08-2.02c3.09-1.34,5.81-3.19,8.17-5.54,2.35-2.35,4.2-5.11,5.54-8.27,1.34-3.16,2.02-6.55,2.02-10.18s-.67-7.02-2.02-10.18c-1.35-3.16-3.19-5.91-5.54-8.27-2.35-2.35-5.07-4.2-8.17-5.54-3.09-1.34-6.45-2.02-10.08-2.02s-7.02.67-10.18,2.02c-3.16,1.34-5.92,3.19-8.27,5.54-2.35,2.35-4.2,5.11-5.54,8.27-1.35,3.16-2.02,6.55-2.02,10.18s.67,7.02,2.02,10.18Z"/>
        <path class="cls-1" d="m1657.41,73.77c5.91,2.55,11.05,6.02,15.42,10.38,4.37,4.37,7.83,9.51,10.38,15.42,2.55,5.92,3.83,12.23,3.83,18.95v49.79c0,2.15-.4,4.2-1.21,6.15-.81,1.95-1.92,3.63-3.33,5.04s-3.06,2.52-4.94,3.33c-1.88.81-3.9,1.21-6.05,1.21-4.3,0-8-1.54-11.09-4.64-3.09-3.09-4.64-6.79-4.64-11.09v-51.41c0-4.57-1.75-8.33-5.24-11.29-3.5-2.96-7.53-4.44-12.09-4.44s-8.77,1.48-12.2,4.44c-3.43,2.96-5.14,6.72-5.14,11.29v51.41c0,4.3-1.55,8-4.64,11.09s-6.79,4.64-11.09,4.64-7.96-1.54-10.99-4.64c-3.02-3.09-4.54-6.79-4.54-11.09v-49.79c0-6.72,1.28-13.03,3.83-18.95,2.55-5.91,6.01-11.05,10.38-15.42,4.37-4.37,9.51-7.83,15.42-10.38,5.91-2.55,12.23-3.83,18.95-3.83s13.03,1.28,18.95,3.83Z"/>
      </g>
    </g>
  </g>
</svg>