<svg width="41" height="41" viewBox="0 0 41 41" fill="none" xmlns="http://www.w3.org/2000/svg">
<path d="M10.9333 37.4066C11.5857 37.4066 12.1146 36.8777 12.1146 36.2253C12.1146 35.5728 11.5857 35.0439 10.9333 35.0439C10.2808 35.0439 9.75195 35.5728 9.75195 36.2253C9.75195 36.8777 10.2808 37.4066 10.9333 37.4066Z" fill="white"/>
<path d="M15.8608 28.3317L12.666 25.1401L14.2311 23.5737L17.4246 26.7653L15.8608 28.3317Z" fill="white"/>
<path d="M9.60156 28.2042L11.1672 26.6392L14.3595 29.832L12.7938 31.3977L9.60156 28.2042Z" fill="white"/>
<path d="M8.59942 29.9897L11.0722 32.4626L10.1798 33.355L7.70703 30.8821L8.59942 29.9897Z" fill="white"/>
<path d="M13.4119 33.3294C13.2054 33.536 13.0648 33.7993 13.0078 34.0858C12.9509 34.3723 12.9802 34.6693 13.092 34.9392C13.2038 35.2091 13.3932 35.4398 13.6361 35.6021C13.879 35.7644 14.1646 35.851 14.4568 35.851C14.7489 35.851 15.0345 35.7644 15.2774 35.6021C15.5204 35.4398 15.7097 35.2091 15.8215 34.9392C15.9334 34.6693 15.9627 34.3723 15.9057 34.0858C15.8488 33.7993 15.7082 33.536 15.5016 33.3294C14.9244 32.7528 13.9891 32.7528 13.4119 33.3294Z" fill="white"/>
<path d="M38.3715 7.70653L38.0537 7.38942C40.1466 5.40092 40.333 4.86471 38.2337 2.76667C36.1344 0.665417 35.5975 0.853761 33.6097 2.94604L33.2932 2.62893C33.5706 2.2894 33.6866 1.95115 33.3797 1.64429C33.0017 1.26696 32.5789 1.52257 32.1606 1.9409C31.7429 2.35859 31.4886 2.78076 31.8653 3.15681C32.1728 3.46367 32.5097 3.34964 32.8499 3.07225L33.1805 3.40281C32.6981 3.91723 32.1375 4.51878 31.4649 5.21001L31.0882 4.83332C31.3662 4.49315 31.4796 4.15618 31.174 3.84868C30.7967 3.47328 30.3739 3.72632 29.9575 4.14273C29.5385 4.5617 29.2842 4.98387 29.6622 5.3612C29.969 5.66806 30.3066 5.5521 30.6468 5.27407L31.028 5.65525C30.9543 5.72956 30.8883 5.7981 30.8121 5.87434C30.2253 6.46115 29.7179 6.97173 29.2803 7.43298L28.8851 7.03707C29.1618 6.6969 29.2765 6.35993 28.969 6.05371C28.5923 5.67703 28.1695 5.93007 27.7531 6.34776C27.3354 6.76673 27.0798 7.1889 27.4578 7.56495C27.7653 7.87245 28.1022 7.75842 28.4424 7.48039L28.8543 7.89359C27.5929 9.29143 27.1592 10.1825 27.6384 11.1883L19.3955 18.9662C18.3795 17.9783 17.2276 17.1615 15.4422 17.298C11.1737 17.6208 13.972 22.4819 8.50423 22.8458C6.54905 22.9745 4.69251 23.4038 3.34976 24.7497C-0.0647664 28.163 1.02686 32.8485 4.58873 36.4117C8.14997 39.9735 12.8361 41.0632 16.25 37.6506C18.0303 35.8716 17.9707 32.6435 18.5659 30.7146C19.334 28.2219 23.3469 29.0656 23.163 26.293C23.147 26.0316 23.0829 25.8663 22.983 25.7677C22.484 25.2686 21.0848 26.4583 20.2437 25.6165C19.9797 25.3538 19.7722 24.8894 19.6633 24.1174L29.8114 13.3632C30.8172 13.8431 31.7096 13.4081 33.1081 12.1467L33.52 12.5586C33.242 12.8994 33.1286 13.237 33.4335 13.5445C33.8102 13.9212 34.2343 13.6669 34.652 13.2479C35.0697 12.8315 35.324 12.4081 34.946 12.0307C34.6392 11.7245 34.3022 11.8398 33.962 12.1172L33.5668 11.7226C34.0287 11.2851 34.5386 10.7777 35.1254 10.1902C35.2016 10.114 35.2708 10.0487 35.3458 9.97434L35.7244 10.3549C35.447 10.6957 35.3323 11.0327 35.6405 11.3402C36.0172 11.7168 36.4393 11.4625 36.857 11.0448C37.2721 10.6271 37.5277 10.2037 37.1511 9.82764C36.8448 9.52078 36.5079 9.63545 36.1677 9.9122L35.7917 9.53615C36.4822 8.86285 37.0838 8.30231 37.5976 7.8212L37.9288 8.15112C37.6501 8.49129 37.5367 8.8289 37.8442 9.13576C38.2209 9.51117 38.6431 9.25812 39.0601 8.83979C39.4791 8.4221 39.7328 7.99865 39.3561 7.6226C39.0486 7.31446 38.7116 7.42978 38.3715 7.70653ZM20.6454 27.3129C20.5877 27.3378 20.5288 27.3615 20.4653 27.3878C19.3282 27.8555 17.7677 28.4954 17.2122 30.2969C17.0085 30.9548 16.8817 31.6845 16.7478 32.459C16.4839 33.985 16.1834 35.714 15.2494 36.6487C13.9431 37.9549 12.4056 38.4905 10.676 38.2438C8.98278 38.0036 7.17558 36.9978 5.58875 35.4097C4.00128 33.8229 2.9955 32.017 2.75591 30.3244C2.50862 28.5954 3.04611 27.0572 4.35042 25.751C5.24601 24.8554 6.55609 24.3948 8.59841 24.259C12.4012 24.0072 13.2666 21.7926 13.8394 20.3275C14.2865 19.1814 14.4377 18.7945 15.5505 18.7099C16.7081 18.6221 17.4839 19.093 18.3654 19.9386L15.5947 22.5537L18.4467 25.407L18.498 25.3525C18.6722 25.874 18.9163 26.2923 19.2424 26.6184C19.6183 27.0016 20.1127 27.2463 20.6454 27.3129ZM30.6045 9.24146C30.5281 9.31773 30.4375 9.3782 30.3377 9.41942C30.2379 9.46064 30.1311 9.48182 30.0231 9.48173C29.9152 9.48164 29.8083 9.46029 29.7086 9.4189C29.6089 9.37751 29.5184 9.31689 29.4421 9.2405C29.3658 9.16412 29.3054 9.07345 29.2641 8.9737C29.2229 8.87394 29.2017 8.76704 29.2018 8.6591C29.2019 8.55116 29.2233 8.44429 29.2647 8.3446C29.3061 8.24491 29.3667 8.15435 29.4431 8.07809C29.5973 7.92407 29.8065 7.83765 30.0245 7.83783C30.2425 7.83801 30.4515 7.92478 30.6055 8.07905C30.7595 8.23332 30.8459 8.44246 30.8457 8.66046C30.8456 8.87845 30.7588 9.08745 30.6045 9.24146ZM31.6571 5.86345C31.9787 5.54314 32.4988 5.54314 32.8211 5.86345C32.9745 6.01799 33.0605 6.227 33.0602 6.44476C33.06 6.66252 32.9736 6.87133 32.8198 7.02554C32.4976 7.34714 31.9774 7.34585 31.6583 7.02554C31.5817 6.94948 31.5208 6.85901 31.4792 6.75934C31.4376 6.65967 31.4162 6.55276 31.416 6.44476C31.4159 6.33676 31.4372 6.22981 31.4785 6.13004C31.5199 6.03028 31.5806 5.93968 31.6571 5.86345ZM32.93 11.565C32.7733 11.7071 32.568 11.7835 32.3565 11.7784C32.1451 11.7733 31.9437 11.687 31.7941 11.5375C31.6445 11.388 31.5581 11.1867 31.5529 10.9752C31.5476 10.7637 31.6239 10.5584 31.766 10.4016C32.0888 10.0813 32.6084 10.0813 32.93 10.4029C33.0065 10.4791 33.0672 10.5697 33.1086 10.6694C33.1501 10.7691 33.1714 10.876 33.1714 10.984C33.1714 11.0919 33.1501 11.1988 33.1086 11.2986C33.0672 11.3983 33.0065 11.4888 32.93 11.565ZM33.8711 3.65009C33.9473 3.57366 34.0379 3.51305 34.1377 3.47174C34.2375 3.43042 34.3444 3.40922 34.4524 3.40934C34.5603 3.40945 34.6672 3.4309 34.7669 3.47243C34.8666 3.51397 34.9571 3.57478 35.0332 3.65137C35.148 3.76643 35.2262 3.91297 35.2577 4.07245C35.2893 4.23193 35.2729 4.3972 35.2105 4.54734C35.1482 4.69748 35.0427 4.82575 34.9074 4.91593C34.7721 5.00612 34.6131 5.05416 34.4506 5.05398C34.288 5.0538 34.1291 5.00541 33.994 4.91493C33.859 4.82445 33.7538 4.69594 33.6917 4.54566C33.6297 4.39538 33.6136 4.23009 33.6455 4.07067C33.6775 3.91126 33.7559 3.76489 33.8711 3.65009ZM35.1433 9.35037C34.9876 9.49685 34.781 9.57694 34.5672 9.57367C34.3534 9.5704 34.1493 9.48403 33.9981 9.33285C33.847 9.18167 33.7606 8.97757 33.7573 8.76379C33.754 8.55002 33.8341 8.34337 33.9806 8.18764C34.3009 7.86861 34.8218 7.86732 35.144 8.18764C35.2978 8.34204 35.3842 8.55116 35.384 8.76914C35.3839 8.98711 35.2974 9.19613 35.1433 9.35037ZM37.3567 7.13637C37.2805 7.21263 37.19 7.27314 37.0904 7.31442C36.9908 7.35571 36.884 7.37698 36.7762 7.37701C36.6684 7.37704 36.5616 7.35583 36.462 7.3146C36.3624 7.27336 36.2718 7.21291 36.1956 7.13669C36.1193 7.06047 36.0588 6.96998 36.0175 6.87037C35.9762 6.77077 35.955 6.66401 35.9549 6.55619C35.9549 6.44837 35.9761 6.3416 36.0173 6.24197C36.0586 6.14235 36.119 6.05182 36.1952 5.97556C36.5156 5.65268 37.0364 5.65396 37.3573 5.97556C37.6783 6.29715 37.6796 6.81478 37.3567 7.13637Z" fill="white"/>
</svg>
