<?xml version="1.0" encoding="UTF-8"?>
<svg id="Layer_2" data-name="Layer 2" xmlns="http://www.w3.org/2000/svg" viewBox="0 0 893.37 331.15">
  <defs>
    <style>
      .cls-1 {
        fill: #ffecca;
      }
    </style>
  </defs>
  <g id="Layer_1-2" data-name="Layer 1">
    <g>
      <g>
        <path class="cls-1" d="m49.99,11.11v205.22H0V11.11h49.99Z"/>
        <path class="cls-1" d="m114.59,211.36c-11.11-4.87-19.88-11.55-26.31-20.02-6.43-8.48-10.04-17.98-10.82-28.5h49.4c.58,5.66,3.22,10.23,7.89,13.74,4.68,3.51,10.42,5.26,17.25,5.26,6.23,0,11.06-1.22,14.47-3.65,3.41-2.43,5.12-5.6,5.12-9.5,0-4.68-2.44-8.14-7.31-10.38-4.87-2.24-12.77-4.72-23.68-7.45-11.69-2.73-21.44-5.6-29.23-8.62-7.8-3.02-14.52-7.79-20.17-14.32-5.66-6.53-8.48-15.35-8.48-26.46,0-9.35,2.58-17.88,7.75-25.58,5.16-7.7,12.76-13.79,22.8-18.27,10.04-4.48,21.97-6.72,35.81-6.72,20.46,0,36.59,5.07,48.38,15.2,11.79,10.14,18.56,23.58,20.32,40.34h-46.19c-.78-5.65-3.27-10.13-7.45-13.45-4.19-3.31-9.7-4.97-16.52-4.97-5.85,0-10.33,1.12-13.45,3.36-3.12,2.24-4.68,5.31-4.68,9.21,0,4.68,2.48,8.19,7.45,10.52,4.97,2.34,12.72,4.68,23.24,7.02,12.08,3.12,21.92,6.19,29.53,9.21,7.6,3.02,14.27,7.89,20.02,14.62,5.75,6.72,8.72,15.74,8.92,27.04,0,9.55-2.68,18.08-8.04,25.58-5.36,7.5-13.06,13.4-23.09,17.69-10.04,4.28-21.68,6.43-34.93,6.43-14.23,0-26.89-2.43-38-7.31Z"/>
        <path class="cls-1" d="m299.35,0v216.33h-49.99V0h49.99Z"/>
        <path class="cls-1" d="m335.16,90.33c6.33-12.67,14.95-22.41,25.87-29.23,10.91-6.82,23.09-10.23,36.54-10.23,11.5,0,21.58,2.34,30.26,7.02,8.67,4.68,15.35,10.82,20.02,18.42v-23.09h49.99v163.12h-49.99v-23.09c-4.87,7.6-11.65,13.74-20.32,18.42-8.67,4.68-18.76,7.02-30.26,7.02-13.26,0-25.34-3.46-36.25-10.38-10.92-6.92-19.54-16.76-25.87-29.53-6.34-12.76-9.5-27.53-9.5-44.29s3.17-31.47,9.5-44.14Zm102.32,14.91c-6.92-7.21-15.35-10.82-25.29-10.82s-18.37,3.56-25.29,10.67c-6.92,7.12-10.38,16.91-10.38,29.38s3.46,22.36,10.38,29.67c6.92,7.31,15.35,10.96,25.29,10.96s18.37-3.6,25.29-10.82c6.92-7.21,10.38-17.05,10.38-29.53s-3.46-22.31-10.38-29.53Z"/>
        <path class="cls-1" d="m679.24,70.01c11.4,12.38,17.1,29.38,17.1,51.01v95.3h-49.7v-88.58c0-10.91-2.83-19.39-8.48-25.43-5.65-6.04-13.26-9.06-22.8-9.06s-17.15,3.02-22.8,9.06c-5.65,6.04-8.48,14.52-8.48,25.43v88.58h-49.99V53.21h49.99v21.63c5.07-7.21,11.89-12.91,20.46-17.1,8.57-4.19,18.22-6.29,28.94-6.29,19.1,0,34.35,6.19,45.75,18.56Z"/>
        <path class="cls-1" d="m730.69,90.33c6.33-12.67,14.95-22.41,25.87-29.23,10.91-6.82,23.09-10.23,36.54-10.23,10.72,0,20.51,2.24,29.38,6.72,8.87,4.49,15.83,10.52,20.9,18.12V0h49.99v216.33h-49.99v-23.39c-4.68,7.8-11.36,14.03-20.02,18.71-8.67,4.68-18.76,7.02-30.26,7.02-13.45,0-25.63-3.46-36.54-10.38-10.92-6.92-19.54-16.76-25.87-29.53-6.34-12.76-9.5-27.53-9.5-44.29s3.17-31.47,9.5-44.14Zm102.32,14.91c-6.92-7.21-15.35-10.82-25.29-10.82s-18.37,3.56-25.29,10.67c-6.92,7.12-10.38,16.91-10.38,29.38s3.46,22.36,10.38,29.67c6.92,7.31,15.35,10.96,25.29,10.96s18.37-3.6,25.29-10.82c6.92-7.21,10.38-17.05,10.38-29.53s-3.46-22.31-10.38-29.53Z"/>
      </g>
      <g>
        <path class="cls-1" d="m100.61,255.43l-21.33,74.97h-10.77l-17.1-60.34-17.74,60.34-10.66.11L2.43,255.43h10.24l16.05,63.57,17.74-63.57h10.77l16.89,63.35,16.15-63.35h10.35Z"/>
        <path class="cls-1" d="m151.39,263.38v25.06h26.82v8.07h-26.82v25.81h29.98v8.07h-39.59v-75.08h39.59v8.07h-29.98Z"/>
        <path class="cls-1" d="m270.74,295.11c2.22,1.79,3.98,4.02,5.28,6.67,1.3,2.65,1.95,5.49,1.95,8.5,0,3.8-.95,7.22-2.85,10.27-1.9,3.05-4.66,5.45-8.29,7.21-3.63,1.76-7.9,2.64-12.83,2.64h-27.45v-74.97h26.39c5,0,9.25.84,12.77,2.53,3.52,1.69,6.16,3.96,7.92,6.83,1.76,2.87,2.64,6.1,2.64,9.68,0,4.45-1.18,8.12-3.54,11.02-2.36,2.9-5.47,5-9.34,6.29,2.67.43,5.12,1.54,7.34,3.33Zm-34.57-7.31h16.15c4.5,0,7.99-1.08,10.45-3.23,2.46-2.15,3.69-5.13,3.69-8.93s-1.23-6.78-3.69-8.93c-2.46-2.15-6.02-3.23-10.66-3.23h-15.94v24.31Zm28.19,31.09c2.67-2.29,4.01-5.49,4.01-9.57s-1.41-7.44-4.22-9.84c-2.82-2.4-6.58-3.6-11.3-3.6h-16.68v26.46h17c4.79,0,8.52-1.15,11.19-3.44Z"/>
        <path class="cls-1" d="m424.45,260c5.88,3.05,10.38,7.41,13.51,13.07,3.13,5.67,4.7,12.33,4.7,20.01s-1.57,14.32-4.7,19.95c-3.13,5.63-7.64,9.93-13.51,12.91-5.88,2.98-12.83,4.46-20.85,4.46h-22.91v-74.97h22.91c8.02,0,14.97,1.52,20.85,4.57Zm.9,54.64c5-5.13,7.5-12.32,7.5-21.57s-2.52-16.6-7.55-21.83c-5.03-5.23-12.26-7.85-21.69-7.85h-13.3v58.94h13.3c9.5,0,16.75-2.56,21.75-7.69Z"/>
        <path class="cls-1" d="m495.55,263.38v25.06h26.82v8.07h-26.82v25.81h29.98v8.07h-39.59v-75.08h39.59v8.07h-29.98Z"/>
        <path class="cls-1" d="m581.01,328.51c-3.84-1.76-6.85-4.19-9.03-7.31-2.18-3.12-3.31-6.72-3.38-10.81h10.24c.35,3.51,1.78,6.47,4.28,8.87,2.5,2.4,6.14,3.6,10.93,3.6s8.18-1.16,10.82-3.5c2.64-2.33,3.96-5.32,3.96-8.98,0-2.87-.77-5.2-2.32-6.99-1.55-1.79-3.48-3.15-5.81-4.09-2.32-.93-5.46-1.94-9.4-3.01-4.86-1.29-8.75-2.58-11.67-3.87-2.92-1.29-5.42-3.32-7.5-6.08-2.08-2.76-3.11-6.47-3.11-11.13,0-4.09,1.02-7.71,3.06-10.86,2.04-3.15,4.91-5.59,8.6-7.31,3.7-1.72,7.93-2.58,12.72-2.58,6.9,0,12.54,1.76,16.94,5.27,4.4,3.51,6.88,8.17,7.44,13.98h-10.56c-.35-2.87-1.83-5.39-4.43-7.58-2.6-2.19-6.05-3.28-10.35-3.28-4.01,0-7.28,1.06-9.82,3.17-2.53,2.12-3.8,5.07-3.8,8.87,0,2.73.76,4.95,2.27,6.67,1.51,1.72,3.38,3.03,5.6,3.93,2.22.9,5.33,1.92,9.34,3.07,4.86,1.36,8.76,2.71,11.72,4.03,2.96,1.33,5.49,3.37,7.6,6.13,2.11,2.76,3.17,6.51,3.17,11.24,0,3.66-.95,7.1-2.85,10.33-1.9,3.23-4.72,5.85-8.45,7.85-3.73,2.01-8.13,3.01-13.2,3.01s-9.2-.88-13.04-2.64Z"/>
        <path class="cls-1" d="m672.91,255.43v74.97h-9.61v-74.97h9.61Z"/>
        <path class="cls-1" d="m775.63,277.15c-2.04-4.37-5-7.76-8.87-10.16-3.87-2.4-8.38-3.6-13.51-3.6s-9.77,1.2-13.88,3.6c-4.12,2.4-7.36,5.85-9.71,10.33-2.36,4.48-3.54,9.66-3.54,15.54s1.18,11.04,3.54,15.49c2.36,4.45,5.6,7.87,9.71,10.27,4.12,2.4,8.74,3.6,13.88,3.6,7.18,0,13.09-2.19,17.74-6.56,4.65-4.37,7.35-10.29,8.13-17.75h-29.35v-7.96h39.59v7.53c-.56,6.17-2.46,11.81-5.7,16.94-3.24,5.13-7.5,9.18-12.77,12.15-5.28,2.98-11.16,4.46-17.63,4.46-6.83,0-13.06-1.63-18.69-4.89-5.63-3.26-10.08-7.8-13.35-13.61-3.27-5.81-4.91-12.37-4.91-19.68s1.64-13.89,4.91-19.74c3.27-5.84,7.72-10.4,13.35-13.66,5.63-3.26,11.86-4.89,18.69-4.89,7.81,0,14.73,1.97,20.74,5.92,6.02,3.94,10.4,9.5,13.14,16.67h-11.51Z"/>
        <path class="cls-1" d="m890.49,330.4h-9.61l-38.64-59.7v59.7h-9.61v-75.08h9.61l38.64,59.59v-59.59h9.61v75.08Z"/>
      </g>
    </g>
  </g>
</svg>