<svg width="117" height="19" viewBox="0 0 117 19" fill="none" xmlns="http://www.w3.org/2000/svg">
<path d="M9.15234 0.9375V18H5.64844V0.9375H9.15234ZM14.4023 0.9375V3.69141H0.480469V0.9375H14.4023ZM22.0781 3.85547L17.4375 18H13.6992L20.0391 0.9375H22.418L22.0781 3.85547ZM25.9336 18L21.2812 3.85547L20.9062 0.9375H23.3086L29.6836 18H25.9336ZM25.7227 11.6484V14.4023H16.7109V11.6484H25.7227ZM34.7812 0.9375V18H31.2656V0.9375H34.7812ZM45 0.9375L38.2383 9.36328L34.3359 13.5586L33.7031 10.2305L36.3398 6.62109L40.6875 0.9375H45ZM41.0039 18L35.9766 10.1133L38.5781 7.93359L45.1641 18H41.0039ZM57.9727 15.2578V18H48.8906V15.2578H57.9727ZM50.0391 0.9375V18H46.5234V0.9375H50.0391ZM56.7891 7.88672V10.5586H48.8906V7.88672H56.7891ZM57.9609 0.9375V3.69141H48.8906V0.9375H57.9609ZM72.9961 0.9375V18H69.4922V0.9375H72.9961ZM78.2461 0.9375V3.69141H64.3242V0.9375H78.2461ZM91.6289 7.88672V10.6289H82.7227V7.88672H91.6289ZM83.7656 0.9375V18H80.25V0.9375H83.7656ZM94.1367 0.9375V18H90.6328V0.9375H94.1367ZM100.934 0.9375V18H97.4297V0.9375H100.934ZM113.109 13.5352C113.109 13.2305 113.062 12.957 112.969 12.7148C112.883 12.4648 112.719 12.2383 112.477 12.0352C112.234 11.8242 111.895 11.6172 111.457 11.4141C111.02 11.2109 110.453 11 109.758 10.7812C108.984 10.5312 108.25 10.25 107.555 9.9375C106.867 9.625 106.258 9.26172 105.727 8.84766C105.203 8.42578 104.789 7.9375 104.484 7.38281C104.188 6.82812 104.039 6.18359 104.039 5.44922C104.039 4.73828 104.195 4.09375 104.508 3.51562C104.82 2.92969 105.258 2.42969 105.82 2.01562C106.383 1.59375 107.047 1.26953 107.812 1.04297C108.586 0.816406 109.434 0.703125 110.355 0.703125C111.613 0.703125 112.711 0.929687 113.648 1.38281C114.586 1.83594 115.312 2.45703 115.828 3.24609C116.352 4.03516 116.613 4.9375 116.613 5.95312H113.121C113.121 5.45312 113.016 5.01562 112.805 4.64062C112.602 4.25781 112.289 3.95703 111.867 3.73828C111.453 3.51953 110.93 3.41016 110.297 3.41016C109.688 3.41016 109.18 3.50391 108.773 3.69141C108.367 3.87109 108.062 4.11719 107.859 4.42969C107.656 4.73438 107.555 5.07812 107.555 5.46094C107.555 5.75 107.625 6.01172 107.766 6.24609C107.914 6.48047 108.133 6.69922 108.422 6.90234C108.711 7.10547 109.066 7.29688 109.488 7.47656C109.91 7.65625 110.398 7.83203 110.953 8.00391C111.883 8.28516 112.699 8.60156 113.402 8.95312C114.113 9.30469 114.707 9.69922 115.184 10.1367C115.66 10.5742 116.02 11.0703 116.262 11.625C116.504 12.1797 116.625 12.8086 116.625 13.5117C116.625 14.2539 116.48 14.918 116.191 15.5039C115.902 16.0898 115.484 16.5859 114.938 16.9922C114.391 17.3984 113.738 17.707 112.98 17.918C112.223 18.1289 111.375 18.2344 110.438 18.2344C109.594 18.2344 108.762 18.125 107.941 17.9062C107.121 17.6797 106.375 17.3398 105.703 16.8867C105.039 16.4336 104.508 15.8555 104.109 15.1523C103.711 14.4492 103.512 13.6172 103.512 12.6562H107.039C107.039 13.1875 107.121 13.6367 107.285 14.0039C107.449 14.3711 107.68 14.668 107.977 14.8945C108.281 15.1211 108.641 15.2852 109.055 15.3867C109.477 15.4883 109.938 15.5391 110.438 15.5391C111.047 15.5391 111.547 15.4531 111.938 15.2812C112.336 15.1094 112.629 14.8711 112.816 14.5664C113.012 14.2617 113.109 13.918 113.109 13.5352Z" fill="white"/>
</svg>
