<svg width="33" height="33" viewBox="0 0 33 33" fill="none" xmlns="http://www.w3.org/2000/svg">
<path d="M4.69735 9.58388H11.1858C11.4572 9.58388 11.7175 9.47606 11.9095 9.28414C12.1014 9.09222 12.2092 8.83192 12.2092 8.5605C12.2092 8.28908 12.1014 8.02878 11.9095 7.83685C11.7175 7.64493 11.4572 7.53711 11.1858 7.53711H4.69735C4.42593 7.53711 4.16561 7.64493 3.97369 7.83685C3.78176 8.02878 3.67394 8.28908 3.67394 8.5605C3.67394 8.83192 3.78176 9.09222 3.97369 9.28414C4.16561 9.47606 4.42593 9.58388 4.69735 9.58388Z" fill="white"/>
<path d="M17.8432 9.58388H28.0518C28.3232 9.58388 28.5835 9.47606 28.7754 9.28414C28.9674 9.09222 29.0752 8.83192 29.0752 8.5605C29.0752 8.28908 28.9674 8.02878 28.7754 7.83685C28.5835 7.64493 28.3232 7.53711 28.0518 7.53711H17.8176C17.5462 7.53711 17.2859 7.64493 17.094 7.83685C16.902 8.02878 16.7942 8.28908 16.7942 8.5605C16.7942 8.83192 16.902 9.09222 17.094 9.28414C17.2859 9.47606 17.5462 9.58388 17.8176 9.58388H17.8432Z" fill="white"/>
<path d="M4.69742 17.3974H28.0518C28.3232 17.3974 28.5835 17.2895 28.7754 17.0976C28.9674 16.9057 29.0752 16.6454 29.0752 16.374C29.0752 16.1026 28.9674 15.8423 28.7754 15.6503C28.5835 15.4584 28.3232 15.3506 28.0518 15.3506H4.69742C4.42599 15.3506 4.16568 15.4584 3.97375 15.6503C3.78182 15.8423 3.674 16.1026 3.674 16.374C3.674 16.6454 3.78182 16.9057 3.97375 17.0976C4.16568 17.2895 4.42599 17.3974 4.69742 17.3974Z" fill="white"/>
<path d="M15.3872 25.2108H28.052C28.3234 25.2108 28.5838 25.103 28.7757 24.9111C28.9676 24.7192 29.0754 24.4589 29.0754 24.1874C29.0754 23.916 28.9676 23.6557 28.7757 23.4638C28.5838 23.2719 28.3234 23.1641 28.052 23.1641H15.3872C15.1158 23.1641 14.8555 23.2719 14.6636 23.4638C14.4717 23.6557 14.3638 23.916 14.3638 24.1874C14.3638 24.4589 14.4717 24.7192 14.6636 24.9111C14.8555 25.103 15.1158 25.2108 15.3872 25.2108Z" fill="white"/>
</svg>
