<svg width="41" height="41" viewBox="0 0 41 41" fill="none" xmlns="http://www.w3.org/2000/svg">
<g clip-path="url(#clip0_61_1227)">
<path d="M2.53581 7.87777C1.56486 7.17041 1.34798 5.80908 2.05534 4.8348C2.7627 3.86051 4.12402 3.64697 5.09497 4.35433L40.1058 29.8792C41.0767 30.5866 41.2903 31.9479 40.5829 32.9222C39.8756 33.8931 38.5142 34.11 37.5433 33.4027L2.53581 7.87777ZM29.6456 17.644V8.00789L20.163 10.7305L12.1519 4.89152L32.2948 0.303711V19.5758L29.6456 17.644ZM12.1218 19.4757V34.5171C12.1318 34.6239 12.1385 34.7306 12.1385 34.8374V34.8407C12.1385 37.4299 9.42253 39.9991 6.06925 40.5797C2.71932 41.1569 0 39.5253 0 36.9361C0 34.3469 2.71932 31.7777 6.06925 31.2005C7.33048 30.9836 8.50163 31.0804 9.47591 31.4207V17.5472L12.1218 19.4757ZM30.9869 33.2325C30.0627 34.1567 28.748 34.8608 27.2866 35.111C24.4872 35.5948 22.2183 34.2335 22.2183 32.068C22.215 30.7234 23.0925 29.3854 24.4272 28.4512L30.9869 33.2325Z" fill="white"/>
</g>
<defs>
<clipPath id="clip0_61_1227">
<rect width="41" height="41" fill="white"/>
</clipPath>
</defs>
</svg>
